<?xml version="1.0" encoding="UTF-8" standalone="no"?>
<!DOCTYPE svg PUBLIC "-//W3C//DTD SVG 1.1//EN" "http://www.w3.org/Graphics/SVG/1.1/DTD/svg11.dtd">
<svg width="100%" height="100%" viewBox="0 0 342 33" version="1.1" xmlns="http://www.w3.org/2000/svg" xmlns:xlink="http://www.w3.org/1999/xlink" xml:space="preserve" xmlns:serif="http://www.serif.com/" style="fill-rule:evenodd;clip-rule:evenodd;stroke-linejoin:round;stroke-miterlimit:2;">
    <g transform="matrix(1,0,0,1,-49.0688,-15.2604)">
        <g transform="matrix(1,0,0,1,7.2373,0)">
            <g transform="matrix(1.84983,0,0,1.84983,-387.013,-101.307)">
                <text x="253.316px" y="77.461px" style="font-family:'Montserrat-ExtraBold', 'Montserrat';font-weight:800;font-size:12px;fill:white;">Ador<tspan x="283.952px " y="77.461px ">a</tspan>ble Dog W<tspan x="358.184px " y="77.461px ">a</tspan>llp<tspan x="381.428px " y="77.461px ">a</tspan>pers</text>
            </g>
            <g transform="matrix(1.62477,0,0,1.62477,38.582,12.0108)">
                <path d="M21,6L19,6L17.73,4.73C17.271,4.27 16.65,4.008 16,4L13.5,4C13.213,2.85 12.185,2.028 11,2L11,8.36C11.051,9.37 11.451,10.331 12.13,11.08C13.248,12.155 14.712,12.8 16.26,12.9L19.71,11.52C20.529,11.191 21.162,10.518 21.44,9.68L22,8.15C22.015,8.047 22.015,7.943 22,7.84L22,7C22,6.451 21.549,6 21,6ZM16,8C15.451,8 15,7.549 15,7C15,6.451 15.451,6 16,6C16.549,6 17,6.451 17,7C17,7.549 16.549,8 16,8Z" style="fill:white;fill-rule:nonzero;"/>
                <path d="M11.38,11.74C10.683,10.976 10.227,10.023 10.07,9L6,9C5.959,9.003 5.917,9.004 5.876,9.004C4.845,9.004 3.996,8.155 3.996,7.124C3.996,7.083 3.997,7.041 4,7C4,6.451 3.549,6 3,6C2.451,6 2,6.451 2,7C2.01,7.694 2.174,8.377 2.48,9C2.817,9.654 3.348,10.188 4,10.53L4,22L7,22L7,17L13,17L13,22L16,22L16,13.87C14.256,13.733 12.617,12.977 11.38,11.74Z" style="fill:white;fill-rule:nonzero;"/>
            </g>
        </g>
    </g>
</svg>
