<?xml version="1.0" encoding="UTF-8" standalone="no"?>
<!DOCTYPE svg PUBLIC "-//W3C//DTD SVG 1.1//EN" "http://www.w3.org/Graphics/SVG/1.1/DTD/svg11.dtd">
<svg width="100%" height="100%" viewBox="0 0 98 22" version="1.1" xmlns="http://www.w3.org/2000/svg" xmlns:xlink="http://www.w3.org/1999/xlink" xml:space="preserve" xmlns:serif="http://www.serif.com/" style="fill-rule:evenodd;clip-rule:evenodd;stroke-linejoin:round;stroke-miterlimit:2;">
    <g transform="matrix(1,0,0,1.63234,-38.8316,-24.5254)">
        <g>
            <g id="Logo">
                <g transform="matrix(0.618356,0,0,0.378816,122.91,13.5094)">
                    <path d="M4,18L20,18L20,10L13,10L13,6L4,6L4,18ZM4,20C3.45,20 2.979,19.804 2.588,19.413C2.196,19.021 2,18.55 2,18L2,6C2,5.45 2.196,4.979 2.588,4.587C2.979,4.196 3.45,4 4,4L20,4C20.55,4 21.021,4.196 21.413,4.587C21.804,4.979 22,5.45 22,6L22,18C22,18.55 21.804,19.021 21.413,19.413C21.021,19.804 20.55,20 20,20L4,20ZM4,18L4,6L4,18Z" style="fill:rgb(111,237,124);fill-rule:nonzero;"/>
                </g>
                <g transform="matrix(3.90244,0,0,2.3907,-114.503,-42.8537)">
                    <g>
                        <g transform="matrix(1,0,0,1,39,29.731)">
                            <path d="M0.292,0L0.292,-3.588L2.209,-3.588C2.704,-3.588 3.07,-3.5 3.306,-3.324C3.541,-3.148 3.659,-2.923 3.659,-2.65C3.659,-2.469 3.609,-2.307 3.508,-2.165C3.407,-2.024 3.261,-1.912 3.07,-1.83C2.879,-1.748 2.643,-1.707 2.363,-1.707L2.465,-1.983C2.745,-1.983 2.987,-1.944 3.19,-1.866C3.394,-1.787 3.551,-1.673 3.662,-1.525C3.773,-1.376 3.828,-1.198 3.828,-0.989C3.828,-0.678 3.699,-0.436 3.441,-0.261C3.183,-0.087 2.807,0 2.311,0L0.292,0ZM1.481,-0.846L2.209,-0.846C2.342,-0.846 2.442,-0.87 2.509,-0.917C2.575,-0.965 2.609,-1.035 2.609,-1.128C2.609,-1.22 2.575,-1.29 2.509,-1.338C2.442,-1.385 2.342,-1.409 2.209,-1.409L1.399,-1.409L1.399,-2.209L2.045,-2.209C2.182,-2.209 2.281,-2.232 2.345,-2.278C2.408,-2.324 2.44,-2.39 2.44,-2.475C2.44,-2.564 2.408,-2.631 2.345,-2.675C2.281,-2.72 2.182,-2.742 2.045,-2.742L1.481,-2.742L1.481,-0.846Z" style="fill:white;fill-rule:nonzero;"/>
                        </g>
                        <g transform="matrix(1,0,0,1,43.192,29.731)">
                            <rect x="0.256" y="-3.803" width="1.158" height="3.803" style="fill:white;fill-rule:nonzero;"/>
                            <path d="M3.408,0.051C3.09,0.051 2.809,-0.011 2.565,-0.136C2.321,-0.261 2.129,-0.432 1.989,-0.651C1.848,-0.87 1.778,-1.121 1.778,-1.404C1.778,-1.688 1.848,-1.939 1.989,-2.158C2.129,-2.376 2.321,-2.547 2.565,-2.67C2.809,-2.793 3.09,-2.855 3.408,-2.855C3.726,-2.855 4.008,-2.793 4.254,-2.67C4.5,-2.547 4.692,-2.376 4.83,-2.158C4.969,-1.939 5.038,-1.688 5.038,-1.404C5.038,-1.121 4.969,-0.87 4.83,-0.651C4.692,-0.432 4.5,-0.261 4.254,-0.136C4.008,-0.011 3.726,0.051 3.408,0.051ZM3.408,-0.851C3.494,-0.851 3.57,-0.871 3.639,-0.912C3.707,-0.953 3.762,-1.016 3.803,-1.099C3.844,-1.183 3.864,-1.285 3.864,-1.404C3.864,-1.527 3.844,-1.629 3.803,-1.709C3.762,-1.789 3.707,-1.85 3.639,-1.891C3.57,-1.932 3.494,-1.953 3.408,-1.953C3.323,-1.953 3.246,-1.932 3.177,-1.891C3.109,-1.85 3.055,-1.789 3.014,-1.709C2.973,-1.629 2.952,-1.527 2.952,-1.404C2.952,-1.285 2.973,-1.183 3.014,-1.099C3.055,-1.016 3.109,-0.953 3.177,-0.912C3.246,-0.871 3.323,-0.851 3.408,-0.851Z" style="fill:white;fill-rule:nonzero;"/>
                            <path d="M5.023,0L6.345,-1.732L6.314,-1.066L5.053,-2.803L6.36,-2.803L6.98,-1.876L6.499,-1.84L7.18,-2.803L8.395,-2.803L7.129,-1.122L7.129,-1.763L8.42,0L7.093,0L6.452,-0.989L6.939,-0.923L6.278,0L5.023,0Z" style="fill:white;fill-rule:nonzero;"/>
                            <path d="M9.445,0L9.445,-2.65L8.395,-2.65L8.395,-3.588L11.706,-3.588L11.706,-2.65L10.655,-2.65L10.655,0L9.445,0Z" style="fill:white;fill-rule:nonzero;"/>
                            <path d="M13.551,0L13.551,-0.497L13.469,-0.63L13.469,-1.573C13.469,-1.71 13.427,-1.814 13.343,-1.886C13.259,-1.958 13.123,-1.994 12.936,-1.994C12.809,-1.994 12.681,-1.974 12.551,-1.935C12.421,-1.895 12.31,-1.842 12.218,-1.773L11.849,-2.537C12.013,-2.639 12.209,-2.718 12.438,-2.773C12.667,-2.827 12.891,-2.855 13.11,-2.855C13.592,-2.855 13.965,-2.747 14.23,-2.532C14.494,-2.316 14.627,-1.975 14.627,-1.507L14.627,0L13.551,0ZM12.756,0.051C12.527,0.051 12.336,0.012 12.182,-0.067C12.028,-0.145 11.912,-0.25 11.834,-0.382C11.755,-0.513 11.716,-0.659 11.716,-0.82C11.716,-1.001 11.762,-1.155 11.854,-1.281C11.946,-1.408 12.087,-1.503 12.277,-1.568C12.467,-1.633 12.707,-1.666 12.997,-1.666L13.581,-1.666L13.581,-1.107L13.182,-1.107C13.059,-1.107 12.969,-1.087 12.912,-1.048C12.856,-1.009 12.828,-0.95 12.828,-0.871C12.828,-0.806 12.853,-0.753 12.902,-0.71C12.952,-0.667 13.019,-0.646 13.105,-0.646C13.183,-0.646 13.256,-0.667 13.322,-0.71C13.389,-0.753 13.438,-0.82 13.469,-0.912L13.617,-0.569C13.573,-0.36 13.479,-0.205 13.335,-0.103C13.192,0 12.999,0.051 12.756,0.051Z" style="fill:white;fill-rule:nonzero;"/>
                            <path d="M17,0.051C16.743,0.051 16.537,0 16.38,-0.103C16.222,-0.205 16.109,-0.364 16.039,-0.579C15.969,-0.794 15.934,-1.069 15.934,-1.404C15.934,-1.736 15.971,-2.008 16.046,-2.222C16.122,-2.435 16.239,-2.594 16.397,-2.698C16.556,-2.803 16.757,-2.855 17,-2.855C17.246,-2.855 17.471,-2.797 17.676,-2.68C17.881,-2.564 18.045,-2.398 18.168,-2.181C18.291,-1.964 18.353,-1.705 18.353,-1.404C18.353,-1.104 18.291,-0.845 18.168,-0.628C18.045,-0.411 17.881,-0.243 17.676,-0.126C17.471,-0.008 17.246,0.051 17,0.051ZM15.129,0L15.129,-3.803L16.287,-3.803L16.287,-2.429L16.236,-1.404L16.231,-0.379L16.231,0L15.129,0ZM16.723,-0.851C16.808,-0.851 16.885,-0.871 16.953,-0.912C17.022,-0.953 17.077,-1.016 17.118,-1.099C17.159,-1.183 17.179,-1.285 17.179,-1.404C17.179,-1.527 17.159,-1.629 17.118,-1.709C17.077,-1.789 17.022,-1.85 16.953,-1.891C16.885,-1.932 16.808,-1.953 16.723,-1.953C16.637,-1.953 16.561,-1.932 16.492,-1.891C16.424,-1.85 16.369,-1.789 16.328,-1.709C16.287,-1.629 16.267,-1.527 16.267,-1.404C16.267,-1.285 16.287,-1.183 16.328,-1.099C16.369,-1.016 16.424,-0.953 16.492,-0.912C16.561,-0.871 16.637,-0.851 16.723,-0.851Z" style="fill:white;fill-rule:nonzero;"/>
                        </g>
                    </g>
                </g>
            </g>
        </g>
    </g>
</svg>
